# xmcd CD database file
#
# Track frame offsets:
#	150
#	15521
#	33681
#	49434
#	64231
#	83044
#	103364
#	119468
#	145671
#	163517
#	182034
#	201780
#	223344
#	242983
#	265003
#	280650
#	311795
#
# Disc length: 4400 seconds
#
# Revision: 2
# Processed by: cddbd v1.5PL3 Copyright (c) Steve Scherf et al.
# Submitted via: CDex 1.51
#
DISCID=04112e11
DTITLE=Barry White - The Ultimate Collection
DYEAR=1997
DGENRE=
TTITLE0=You're the first, the last, my everything
TTITLE1=Can't get enough of your love
TTITLE2=Let the music play
TTITLE3=Don't make me wait too long
TTITLE4=I'll do for you anything you want me to
TTITLE5=Show you right
TTITLE6=What I'm gonna do with you
TTITLE7=Come on
TTITLE8=I'm gonna love you just a little more babe
TTITLE9=Never never gonna give you up
TTITLE10=Baby we better try and get it together
TTITLE11=Just the way you are
TTITLE12=I'm qualified to satisfy you
TTITLE13=Dark and lovely
TTITLE14=You see the trouble with me
TTITLE15=It's ectasy when you lay down next to me
TTITLE16=The right night
EXTD=Music To Listen While You're Making Love YEAR: 1997
EXTT0=
EXTT1=
EXTT2=
EXTT3=
EXTT4=
EXTT5=
EXTT6=
EXTT7=
EXTT8=
EXTT9=
EXTT10=
EXTT11=
EXTT12=
EXTT13=
EXTT14=
EXTT15=
EXTT16=
PLAYORDER=
